<?xml version="1.0" encoding="UTF-8"?>
<svg id="Layer_1" data-name="Layer 1" xmlns="http://www.w3.org/2000/svg" viewBox="0 0 22.49 22.49">
  <defs>
    <style>
      .cls-1 {
        fill: #014d7a;
      }

      .cls-2 {
        fill: #66788c;
      }

      .cls-3 {
        fill: #f0f2f7;
      }
    </style>
  </defs>
  <circle class="cls-3" cx="11.24" cy="11.24" r="11.24"/>
  <path class="cls-2" d="M10.37,11.05c0,.73.6,1.32,1.32,1.32s1.32-.6,1.32-1.32-.6-1.32-1.32-1.32c-.73-.02-1.32.6-1.32,1.32Z"/>
  <path class="cls-1" d="M7.91,11.42v.21c0-.06.02-.15.02-.21h-.02Z"/>
  <path class="cls-2" d="M7.5,9.86l.75.15.29.04c.02-.07.04-.13.07-.2.33-.88,1.04-1.59,1.94-1.92l.07-1.12c-1.5.4-2.69,1.54-3.11,3.04Z"/>
  <path class="cls-2" d="M11.71,6.68h-.11l-.07,1.04h.18c1.41,0,2.62.88,3.11,2.14.13.37.22.77.22,1.19,0,1.83-1.5,3.33-3.33,3.33s-3.33-1.5-3.33-3.33v-.02l-1.01-.2c-.02.07-.02.13-.02.22-.02,4.1,4.37,6.57,4.37,6.57,0,0,4.37-2.6,4.37-6.57,0-2.43-1.96-4.37-4.37-4.37Z"/>
  <path class="cls-2" d="M6.68,5.38s.07-.04.09-.09c1.15-.95,2.54-1.5,4.01-1.46l.07-1.01c-1.76-.09-3.46.49-4.83,1.61-.04.02-.07.07-.11.09-1.32,1.19-2.16,2.8-2.34,4.57l1.01.2c.13-1.54.93-2.87,2.1-3.9Z"/>
  <path class="cls-2" d="M7.96,6.88l.04-.04s.09-.07.11-.09c.75-.57,1.59-.95,2.54-.93l.07-1.01c-1.26-.04-2.38.42-3.35,1.24-.02.02-.04.04-.09.07-.93.82-1.63,2.03-1.79,3.37l1.01.2c.11-1.12.71-2.16,1.46-2.8Z"/>
</svg>